<?xml version="1.0" encoding="UTF-8"?>
<!DOCTYPE svg PUBLIC "-//W3C//DTD SVG 1.1//EN" "http://www.w3.org/Graphics/SVG/1.1/DTD/svg11.dtd">
<!-- Creator: CorelDRAW 2017 -->
<svg xmlns="http://www.w3.org/2000/svg" xml:space="preserve" width="640px" height="480px" version="1.1" style="shape-rendering:geometricPrecision; text-rendering:geometricPrecision; image-rendering:optimizeQuality; fill-rule:evenodd; clip-rule:evenodd"
viewBox="0 0 640 480"
 xmlns:xlink="http://www.w3.org/1999/xlink">
 <defs>
  <style type="text/css">
   <![CDATA[
    .str1 {stroke:#FEFEFE}
    .str4 {stroke:#D54028}
    .str3 {stroke:#FEFEFE;stroke-width:2}
    .str0 {stroke:#2B2A29;stroke-width:2}
    .str5 {stroke:#D54028;stroke-width:2}
    .str2 {stroke:#FEFEFE}
    .fil8 {fill:none}
    .fil9 {fill:#FEFEFE}
    .fil0 {fill:#2B2A29}
    .fil4 {fill:#121920}
    .fil1 {fill:#1FBCD3}
    .fil7 {fill:#202020}
    .fil2 {fill:#21201F}
    .fil10 {fill:#D54028}
    .fil3 {fill:#F6E132}
    .fil6 {fill:url(#id0)}
    .fil5 {fill:url(#id1)}
   ]]>
  </style>
  <radialGradient id="id0" gradientUnits="userSpaceOnUse" gradientTransform="matrix(0.995506 -0 -0 -0.99551 2 181)" cx="556" cy="91" r="369" fx="556" fy="91">
   <stop offset="0" style="stop-opacity:1; stop-color:white"/>
   <stop offset="0.0313725" style="stop-opacity:1; stop-color:white"/>
   <stop offset="0.239216" style="stop-opacity:1; stop-color:#FFFFFC"/>
   <stop offset="0.380392" style="stop-opacity:1; stop-color:#FEFDF3"/>
   <stop offset="0.501961" style="stop-opacity:1; stop-color:#FEFBE4"/>
   <stop offset="0.611765" style="stop-opacity:1; stop-color:#FDF8CE"/>
   <stop offset="0.709804" style="stop-opacity:1; stop-color:#FCF4B2"/>
   <stop offset="0.811765" style="stop-opacity:1; stop-color:#FAEF90"/>
   <stop offset="0.901961" style="stop-opacity:1; stop-color:#F8E967"/>
   <stop offset="0.988235" style="stop-opacity:1; stop-color:#F6E239"/>
   <stop offset="1" style="stop-opacity:1; stop-color:#F6E132"/>
  </radialGradient>
  <radialGradient id="id1" gradientUnits="userSpaceOnUse" gradientTransform="matrix(1.93181 -0 -0 -1.93182 -484 349)" cx="519" cy="119" r="1155" fx="519" fy="119">
   <stop offset="0" style="stop-opacity:0.301961; stop-color:white"/>
   <stop offset="1" style="stop-opacity:0; stop-color:#ECF5F6"/>
  </radialGradient>
 </defs>
 <g id="Слой_x0020_1">
  <metadata id="CorelCorpID_0Corel-Layer"/>
  <rect class="fil0 str0" width="640" height="480"/>
  <g id="_806479935376">
   <circle class="fil1" cx="555" cy="85" r="75"/>
   <path class="fil2" d="M585 66l1 -12 -15 -6 0 -8 -8 -4c1,-1 1,-3 1,-4 0,-5 -4,-9 -9,-9 -5,0 -9,4 -9,9 0,2 0,3 1,5l-8 4c0,0 1,8 1,8 -1,0 -15,5 -15,5l1 12c0,0 0,0 0,0 0,4 7,67 22,74 1,0 1,0 1,1 0,0 0,0 0,0l3 1 3 1 7 -3 0 0 0 0c0,0 1,-1 1,-1 15,-9 21,-74 21,-74l-20 -4 0 0 20 4zm-30 -42c4,0 7,3 7,7 0,1 0,2 -1,3l-6 -3 -7 4c-1,-1 -1,-2 -1,-4 0,-4 3,-7 7,-7z"/>
   <path class="fil3" d="M585 65l1 -12 -15 -6 0 -8 -8 -4c1,-1 1,-3 1,-4 0,-5 -4,-9 -9,-9 -5,0 -9,4 -9,9 0,2 0,3 1,5l-8 4c0,0 1,8 1,8 -1,0 -15,5 -15,5l1 12c0,0 0,0 0,0 0,4 7,67 22,74 1,0 1,0 1,1 0,0 0,0 0,0l3 1 3 1 7 -3 0 0 0 0c0,0 1,-1 1,-1 15,-9 21,-74 21,-74l-20 -4 0 0 20 4zm-30 -42c4,0 7,3 7,7 0,1 0,2 -1,3l-6 -3 -7 4c-1,-1 -1,-2 -1,-4 0,-4 3,-7 7,-7z"/>
   <path class="fil4" d="M585 65l1 -12 -15 -6 0 -8 -8 -4c1,-1 1,-3 1,-4 0,-5 -4,-9 -9,-9 -5,0 -9,4 -9,9 0,2 0,3 1,5l-8 4c0,0 1,8 1,8 -1,0 -15,5 -15,5l1 12c0,0 0,0 0,0 0,4 7,67 22,74 1,0 1,0 1,1 0,0 0,0 0,0l3 1 3 1 7 -3 0 0 0 0c0,0 1,-1 1,-1 15,-9 21,-74 21,-74l-20 -4 0 0 20 4zm-30 -42c4,0 7,3 7,7 0,1 0,2 -1,3l-6 -3 -7 4c-1,-1 -1,-2 -1,-4 0,-4 3,-7 7,-7z"/>
   <circle class="fil5" cx="555" cy="85" r="75"/>
   <path class="fil3" d="M565 61l20 4c0,0 -6,65 -21,74 0,0 -1,1 -1,1l-1 0 3 -79z"/>
   <path class="fil3" d="M546 61l-19 4c0,0 6,67 22,75 1,0 1,0 1,1 0,0 -4,-79 -4,-79z"/>
   <circle class="fil6" cx="556" cy="91" r="24"/>
   <path class="fil7" d="M571 47l0 -8 -8 -4c1,-1 1,-3 1,-4 0,-5 -4,-9 -9,-9 -5,0 -9,4 -9,9 0,2 0,3 1,5l-8 4c0,0 1,8 1,8 -1,0 -15,5 -15,5l1 12c5,-1 19,-4 19,-4 0,0 0,0 0,1 0,3 4,78 4,78l0 0 0 0 3 2 3 1 7 -3 3 -79 20 4 1 -12 -15 -6zm-23 -16c0,-4 3,-7 7,-7 4,0 7,3 7,7 0,1 0,2 -1,3l-6 -3 -7 4c-1,-1 -1,-2 -1,-4z"/>
  </g>
  <g id="_806479923472">
   <path class="fil8 str1" d="M49 36c-4,3 -7,7 -10,12"/>
   <g>
    <line class="fil8 str2" x1="39" y1="48" x2="123" y2= "86" />
   </g>
   <path class="fil8 str1" d="M56 136c5,2 10,3 16,4"/>
   <g>
    <line class="fil8 str2" x1="114" y1="113" x2="77" y2= "113" />
   </g>
   <g>
    <line class="fil8 str2" x1="123" y1="104" x2="114" y2= "113" />
   </g>
   <g>
    <line class="fil8 str2" x1="131" y1="47" x2="123" y2= "104" />
   </g>
   <path class="fil8 str1" d="M122 36c3,3 6,7 9,11"/>
   <g>
    <line class="fil8 str2" x1="122" y1="36" x2="49" y2= "36" />
   </g>
   <g>
    <line class="fil8 str2" x1="79" y1="96" x2="78" y2= "94" />
   </g>
   <g>
    <line class="fil8 str2" x1="83" y1="55" x2="78" y2= "94" />
   </g>
   <g>
    <line class="fil8 str2" x1="85" y1="54" x2="83" y2= "55" />
   </g>
   <g>
    <line class="fil8 str2" x1="111" y1="54" x2="85" y2= "54" />
   </g>
   <g>
    <line class="fil8 str2" x1="113" y1="55" x2="111" y2= "54" />
   </g>
   <g>
    <line class="fil8 str2" x1="107" y1="94" x2="113" y2= "55" />
   </g>
   <g>
    <line class="fil8 str2" x1="105" y1="96" x2="107" y2= "94" />
   </g>
   <g>
    <line class="fil8 str2" x1="79" y1="96" x2="105" y2= "96" />
   </g>
   <path class="fil9 str3" d="M78 94l5 -38 2 -2 26 0 1 2 -5 38 -2 2 -26 0 -1 -2zm44 -58l-73 0c-4,3 -7,7 -10,12l28 0 -11 88c5,2 10,3 16,4l3 -26 2 -2 37 0 9 -9 8 -57c-3,-4 -6,-8 -9,-11z"/>
   <circle class="fil8 str4" cx="85" cy="85" r="75"/>
   <path class="fil10 str5" d="M56 136l11 -88 -28 0c3,-5 6,-9 10,-12l73 0c3,3 6,7 9,11l-8 57 -9 9 -37 0 -2 2 -3 26c-6,-1 -11,-2 -16,-4zm104 -51c0,-41 -34,-75 -75,-75 -41,0 -75,34 -75,75 0,41 34,75 75,75 41,0 75,-34 75,-75z"/>
   <polygon class="fil10 str5" points="83,55 78,94 79,96 105,96 107,94 113,55 111,54 85,54 "/>
  </g>
 </g>
</svg>
